<svg width="18" height="20" viewBox="0 0 18 20" fill="none" xmlns="http://www.w3.org/2000/svg">
<path d="M1.77783 4.58333H16.2223M12.6112 4.58333L12.3669 3.85034C12.1301 3.14002 12.0116 2.78486 11.7921 2.52227C11.5982 2.2904 11.3492 2.11091 11.0679 2.00029C10.7493 1.875 10.375 1.875 9.62622 1.875H8.37389C7.62512 1.875 7.25083 1.875 6.93225 2.00029C6.65095 2.11091 6.40193 2.2904 6.20802 2.52227C5.98843 2.78486 5.87005 3.14002 5.63327 3.85034L5.38894 4.58333M14.4167 4.58333V13.7917C14.4167 15.3085 14.4167 16.0668 14.1215 16.6462C13.8619 17.1559 13.4476 17.5702 12.938 17.8298C12.3586 18.125 11.6002 18.125 10.0834 18.125H7.91672C6.39991 18.125 5.6415 18.125 5.06216 17.8298C4.55256 17.5702 4.13823 17.1559 3.87858 16.6462C3.58339 16.0668 3.58339 15.3085 3.58339 13.7917V4.58333M10.8056 8.19444V14.5139M7.1945 8.19444V14.5139" stroke="#5A2FA0" stroke-width="2.22222" stroke-linecap="round" stroke-linejoin="round"/>
</svg>
